/* XPM */
static char * colwellblaine_xpm[] = {
"20 20 3 1",
" 	c None",
".	c #FFFFFF",
"+	c #4B51FF",
".++++++++++++++++++ ",
"++++++++++++++++++++",
"+++              .++",
"++                ..",
"++                ..",
"++                ..",
"++                ..",
"++                ..",
"++               ...",
"++................. ",
"++................. ",
"++               ...",
"++                ..",
"++                ..",
"++                ..",
"++                ..",
"++                ..",
"+++              .++",
"++++++++++++++++++++",
".++++++++++++++++++ "};
